Patient4_TMGait_0pt3_02_left_03_EMG.mot
version=1
nRows=33
nColumns=33
inDegrees=no
endheader
time	1LAddLong	2LGlutMax	3LGlutMed	4LIliopsoas	5LSemiMemb	6LBicFemLong	7LRecFem	8LVastMed	9LVastLat	10LGasMed	11LTibAnt	12lTibPost	13LPeroneusLong	14LSol	15LExtDigLong	16LFlexDigLong	17RAddLong	18RGlutMax	19RGlutMed	20RIliopsoas	21RSemiMemb	22RBicFemLong	23RRecFem	24RVastMed	25RVastLat	26RGasMed	27RTibAnt	28RTibPost	29RPeroneusLong	30RSol	31RExtDigLong	32RFlexDigLong
7.323	0.000916	-0.043488	0.008698	0.005188	-0.006256	-0.030518	-0.007935	0.006866	0.001221	0.015564	0.026703	-0.001831	-0.075226	-0.040741	0.22247	0.014038	0.076752	-0.10468	-0.040894	-0.021515	-0.075073	-0.09201	0.12863	-0.41641	0.25223	0.012512	0.011292	-0.02533	-0.11124	0.11795	0.001373	0.012054
7.324	-0.012665	-0.072632	0.060272	-0.007935	0.001068	-0.034943	-0.014496	-0.001526	0.002136	0.011444	0.045471	0.003967	-0.10819	0.038757	0.45593	0.010223	0.083313	-0.17364	0.079041	-0.066833	0.11261	-0.11795	0.10895	-0.57785	0.11108	0.020752	0.015564	-0.020447	-0.63965	0.12131	0.001984	-0.012665
7.325	0.005798	-0.053253	0.058289	0.014648	0.001373	-0.025787	-0.035858	0.011749	0.003967	0.001068	0.15198	0.007629	-0.14023	0.068665	0.51971	0.013428	0.063934	-0.049591	0.53268	0.041046	-0.006866	-0.086365	0.016937	-0.46341	-0.009003	0.033417	0.066833	-0.028229	-1.6203	0.22293	0.006104	-0.011902
7.326	-0.000763	-0.067596	0.034943	0.011749	0.003815	-0.027771	-0.024719	0.005646	-0.000763	-0.023193	0.19012	0.004883	-0.078278	0.029907	-0.062714	0.013428	-0.010223	0.000458	-0.16739	0.21927	0.007477	0.061035	-0.10284	-0.091553	-0.052948	0.033722	-0.004578	-0.030365	-0.87112	0.19211	0.003662	-0.019073
7.327	-0.007477	-0.070496	0.013885	0.014038	-0.004883	-0.038452	-0.013123	0.01236	0.007782	-0.015869	0.13748	0.003052	0.016327	0.00351	-0.31586	-0.003662	-0.097809	-0.018616	-0.65292	0.26566	0.22079	0.008392	-0.3923	0.18265	-0.17334	0.045013	0.046844	-0.039063	-0.54764	0.14572	-0.001068	-0.018921
7.328	0.00351	-0.074005	0.029602	-0.001068	-0.001831	-0.033569	0.036469	0.010986	0.000916	-0.041656	-0.074768	0.00412	0.081482	0.013123	-0.40909	0.006256	-0.098267	0.001526	-0.23377	0.14847	0.052795	-0.000916	-0.34759	0.20721	-0.31235	0.052185	0.079651	-0.03479	-1.087	-0.020294	-0.001831	-0.014954
7.329	0.002899	-0.08255	0.013123	-0.014343	-0.00824	-0.043488	0.030212	0.009766	-0.00061	-0.016174	-0.22583	0.008698	0.10437	-0.056763	-0.54184	-0.008545	-0.010376	-0.075989	0.4686	0.049896	-0.031738	-0.065002	0.05127	0.1889	-0.3125	0.020905	0.030823	-0.018768	-0.74875	-0.33081	0.001984	-0.020447
7.33	0.005798	-0.08667	0.030823	-0.011139	-0.016785	-0.058594	0.048828	0.006561	-0.00061	-0.033112	-0.058594	0.001373	0.046539	-0.04837	-0.089722	-0.016479	0.071716	-0.079498	1.0963	-0.16953	-0.11124	-0.054016	0.40085	0.09079	-0.26611	-0.001373	0.10468	-0.002747	-0.65124	-0.40985	0.001831	-0.014801
7.331	-0.00412	-0.1059	0.053101	-0.006561	-0.00351	-0.048981	0.049591	0.009613	-0.005341	-0.028687	0.074615	0.007935	-0.016937	0.012054	0.112	-0.014496	0.070953	-0.14496	1.0669	-0.16251	-0.13412	-0.010834	0.44998	-0.061035	-0.19623	0.010681	0.10574	-0.024414	-0.44266	-0.43549	0.001831	-0.009766
7.332	0.002136	-0.10788	0.044403	-0.014496	-0.00412	-0.048828	0.056305	0.009613	-0.001831	0.002441	0.10162	0.004272	-0.076752	-0.014648	-0.077362	-0.013428	0.027008	-0.17792	-0.046692	-0.095367	0.14832	0.085449	0.31693	-0.20767	-0.074005	-0.002441	-0.009918	-0.03418	0.41687	-0.18066	0.005188	-0.00473
7.333	0.007019	-0.088654	0.054474	0.010681	-0.003967	-0.068665	0.032043	0.014191	0.00061	0.011902	-0.006714	0.00824	-0.034027	-0.048676	-0.19409	-0.001068	0.030212	-0.096741	-0.22903	-0.12085	-0.000458	0.16907	0.39688	-0.3804	0.007935	-0.020752	0.046692	-0.053406	0.47043	0.42465	-0.00473	-0.001984
7.334	0.00412	-0.05249	0.066681	0.040588	-0.001678	-0.072174	0.005646	0.004425	-0.010223	-0.009613	0.012817	0.008698	-0.014648	0.010376	-0.045776	0	0.056305	-0.11398	0.37674	-0.074158	-0.16342	0.18555	0.59006	-0.47684	0.048218	-0.10498	0.13351	-0.17349	0.60608	0.78186	0.001526	0.002899
7.335	0.016479	-0.074005	0.055237	0.050964	0.000916	-0.060272	0.013428	0.007782	-0.00351	0.004883	0.010834	0.011292	-0.018616	-0.015564	-0.12375	-0.005493	-0.024872	-0.11368	-0.029449	0.24216	-0.22308	0.18478	0.41473	0.13626	0.17777	-0.12634	0.26367	-0.13245	-2.0337	0.83298	0.007172	0.000916
7.336	0.004578	-0.09491	0.009918	0.039215	0.006104	-0.079651	-0.031586	0.005341	0.006256	0.009613	-0.022583	0.010071	-0.028534	-0.056305	0.24551	0.002594	-0.1265	-0.1564	-0.67108	0.31143	-0.12344	0.15076	0.088043	1.0927	0.24811	-0.013885	0.092773	-0.47531	-0.86075	0.068359	-0.001068	0.016632
7.337	0.004425	-0.076904	0.023499	0.036469	0.003967	-0.095978	-0.039368	0.007477	0.005493	-0.002899	0.077362	0.008545	-0.031433	-0.046387	1.0344	0.002899	-0.13992	-0.04303	-0.87708	0.21713	0.034027	0.10803	-0.36209	0.97824	0.17563	0.083008	-0.36285	0.33295	1.967	-0.12878	-0.002441	0.001678
7.338	0.010986	-0.085144	0.019073	0.003815	-0.014954	-0.06012	-0.047913	0.005188	0.019531	-0.032043	0.17716	0.011139	0.003967	-0.039368	-0.25879	-0.009308	-0.14465	0.037231	-0.46066	-0.084229	0.2066	0.074615	-0.81039	0.68054	0.43808	0.066681	-0.42175	0.23575	1.8346	-0.1738	0.009613	-0.010834
7.339	0.005798	-0.046539	0.035706	-0.024414	-0.011597	-0.050354	-0.045929	0.006866	-0.000458	-0.036011	0.19531	0.005646	-0.00412	-0.12207	-0.41229	-0.000763	-0.084686	0.054779	0.77927	-0.27222	0.25879	-0.022583	-0.72128	-0.010223	0.4921	0.001068	-0.112	0.065918	0.14648	-0.31937	0.000305	-0.016174
7.34	0.003967	-0.040894	0.053253	-0.009613	-0.005493	-0.072784	-0.024261	0.004578	0.000458	0.013275	0.19562	0.012817	-0.056305	-0.083313	-0.21194	-0.004272	-0.06134	-0.014038	0.50095	-0.28076	0.1886	-0.11017	-0.41031	-0.53574	-0.13886	-0.057983	0.041046	0.16876	0.69076	-0.23865	0.002899	-0.01709
7.341	0.006714	-0.066223	0.054626	-0.006714	0.001526	-0.052795	0.012665	0.006104	-0.018616	0.019684	0.017395	0.011292	-0.022736	-0.057831	-0.045929	0.001068	-0.047302	-0.095673	0.51239	-0.16403	0.10193	-0.21698	-0.29083	-0.63599	-0.40024	-0.058441	-0.048828	0.24506	0.2887	-0.40192	0.003967	-0.010376
7.342	0.010223	-0.07782	0.020294	0.003357	-0.004883	-0.038452	0.0354	0.009003	-0.012512	0.040741	-0.28412	0.00885	0.014954	-0.080261	0.31052	-0.001831	-0.05127	-0.071106	0.094604	0.053558	0.051575	-0.22964	-0.38681	-0.34363	-0.18066	-0.028839	-0.028076	0.14587	0.48675	0.018463	0.000153	-0.01358
7.343	0.007935	-0.07843	0.007629	0.005188	-0.005188	-0.045929	0.047607	0.009308	-0.004883	0.019226	-0.32013	0.017548	-0.003815	-0.053253	0.2655	0.006409	-0.032654	-0.075378	-0.31952	0.020599	0.053711	-0.20386	-0.45837	0.17029	-0.022125	-0.015106	-0.083923	0.034637	1.2296	0.21805	0.002136	-0.013733
7.344	0.012054	-0.045624	0.009918	0.003204	0.000458	-0.040741	0.04776	0.005951	-0.015411	-0.022583	-0.40832	0.013275	0.083923	-0.015259	0.024872	0.01358	-0.01236	-0.073853	-0.61401	0.10193	-0.016174	-0.16556	-0.31937	-0.05661	0.077667	-0.015564	-0.006104	0.015259	0.53757	0.1532	0.005035	-0.019684
7.345	0.003815	-0.053558	0.023499	0.006866	-0.00824	-0.04303	0.033875	0.00946	-0.007935	-0.041199	-0.28595	0.01236	0.093994	0.087585	0.22369	-0.002289	0.019989	0.01358	-1.0851	0.12085	-0.05127	-0.11154	0.14145	-0.25406	0.001068	0.016632	0.13001	-0.10193	0.75729	-0.023956	0.002441	-0.012817
7.346	0.009766	-0.048065	0.044708	-0.000153	-0.007324	-0.045929	0.025024	0.000458	-0.01297	-0.063019	0.014801	0.010223	0.041351	0.15671	-0.043488	0.004272	0.051575	0.057373	-0.88974	0.21133	-0.02121	-0.16953	0.34058	-0.29343	0.10651	0.04303	0.048218	-0.00885	0.27634	-0.15976	0.001831	-0.014954
7.347	-0.000153	-0.062866	0.058594	-0.012054	-0.000916	-0.063782	-0.014343	0.010681	0.011597	-0.041809	0.36011	0.010071	-0.023651	0.05661	-0.036926	0.007629	0.061798	0.049896	-0.48614	0.23132	-0.13489	-0.12711	0.19104	-0.50873	0.1297	0.066681	-0.046539	-0.042419	-1.0799	0.093231	0.001373	0.001221
7.348	0.002899	-0.057678	0.030365	-0.003967	-0.001984	-0.062714	-0.010223	0.007172	0.007629	0.011902	0.27557	0.00946	-0.11597	-0.046997	-0.10666	0.012665	0.013428	0.081329	0.47592	0.19531	-0.32593	-0.099335	0.12482	-0.41718	-0.027618	0.058899	0.003967	-0.020142	-0.83557	-0.18356	-0.001221	-0.002594
7.349	0.00351	-0.056152	0.020294	0.006104	-0.004425	-0.059052	0.00061	0.006104	0.009308	0.032196	0.1831	0.012512	-0.099487	-0.11261	0.23834	0.007629	0.014954	0.10925	0.80231	0.089722	-0.48782	-0.073547	0.25009	-0.63538	-0.35873	0.07431	-0.08194	0.009918	-0.21805	-0.82626	-0.000153	0.000458
7.35	-0.003204	-0.063934	0.046234	0.013123	0.004272	-0.066833	0.023956	0.005798	-0.001221	0.006104	-0.14053	0.005341	-0.039978	-0.050964	-0.18997	0.022736	0.007935	0.14358	1.0902	-0.1561	0.012207	-0.030975	0.18036	-0.34821	-0.33371	0.044403	-0.15961	-0.26779	-0.12283	-1.1862	-0.001373	-0.012817
7.351	0.000763	-0.042572	0.064697	-0.006866	-0.006256	-0.054169	0.024567	0.007782	0.003052	-0.037537	-0.057678	0.002136	0.016937	0.023041	-0.34409	0.032806	-0.005951	0.13702	0.63202	-0.13702	0.29938	-0.063171	0.067139	0.17822	-0.25421	-0.080261	-0.016327	-0.085907	-0.20187	-1.5385	0.011139	-0.011902
7.352	-0.006256	-0.086365	-0.003815	0.010834	-0.003662	-0.048981	0.021362	0.005646	-0.003357	-0.072632	-0.050812	0.019379	0.14023	0.039215	-0.12024	0.032196	0.031281	0.045013	-0.79514	-0.022278	0.065002	-0.12405	0.22797	0.52872	-0.12756	-0.17136	0.07843	-0.10346	-0.59158	-0.71716	0.002136	-0.007172
7.353	-0.005188	-0.056305	-0.02121	0.01358	-0.011139	-0.039063	0.030365	0.008392	0.00061	-0.045166	0.023956	0.013123	0.083008	0.076752	0.064087	0.018158	0.037384	0.029755	-0.97885	-0.040283	0.017853	-0.079041	0.23041	0.44754	-0.089417	-0.13733	0.016479	-0.043945	-0.55649	0.12253	0.002594	0.005798
7.354	-0.003204	-0.05661	0.006714	0.019836	-0.001678	-0.037537	0.052185	0.001678	-0.009155	0.005798	0.03418	0.011902	-0.066376	0.13107	0.00824	0.018158	0.034485	0.007019	0.49652	-0.012054	-0.08606	-0.055695	0.22171	0.4628	-0.088196	-0.039978	-0.009613	-0.27039	-0.33798	-0.7579	0.00351	-0.01297
7.355	-0.002136	-0.058594	0.029907	0.034637	-0.007477	-0.040283	0.037231	0.005646	-0.004578	0.035858	0.011749	0.007629	-0.09201	-0.08606	0.02182	0.013885	0.030823	0.004578	0.09903	0.014343	0.079346	-0.042877	0.00351	0.49332	0.10452	0.058441	0.030212	-0.11169	0.43564	-1.0599	0.000763	-0.03418
